<?xml version="1.0" standalone="no"?>
<!DOCTYPE svg PUBLIC "-//W3C//DTD SVG 20010904//EN"
 "http://www.w3.org/TR/2001/REC-SVG-20010904/DTD/svg10.dtd">
<svg version="1.0" xmlns="http://www.w3.org/2000/svg"
 width="1024.000000pt" height="1024.000000pt" viewBox="0 0 1024.000000 1024.000000"
 preserveAspectRatio="xMidYMid meet">

<g transform="translate(0.000000,1024.000000) scale(0.100000,-0.100000)"
fill="#000000" stroke="none">
<path d="M4783 8214 c-400 -48 -733 -189 -958 -405 -102 -99 -164 -182 -215
-292 -61 -131 -74 -200 -74 -367 0 -155 10 -211 62 -345 l27 -70 3 45 c8 158
60 357 128 492 115 231 344 428 596 514 77 26 210 49 232 41 14 -6 16 -40 16
-257 0 -144 4 -249 9 -246 22 14 160 36 281 46 218 18 453 -12 677 -85 l103
-33 0 265 0 265 37 -7 c124 -23 327 -187 445 -359 81 -118 165 -326 224 -556
41 -159 59 -203 104 -254 63 -72 170 -105 340 -106 64 0 64 0 40 17 -74 51
-107 144 -175 499 -66 347 -160 531 -389 759 -246 245 -540 388 -906 440 -131
18 -452 18 -607 -1z"/>
<path d="M2388 7025 c-11 -224 15 -530 63 -735 52 -228 160 -471 276 -624 128
-170 334 -359 533 -489 257 -167 727 -381 1180 -538 l165 -57 3 -299 2 -299
83 -43 c45 -24 147 -79 227 -121 80 -43 253 -135 385 -205 132 -70 268 -143
303 -162 l62 -33 0 385 c0 241 4 385 10 385 14 0 179 -101 305 -187 340 -233
460 -399 511 -709 21 -127 14 -334 -15 -449 -10 -44 -18 -81 -16 -83 10 -10
123 146 161 223 66 133 87 224 88 380 1 111 -3 141 -22 205 -47 148 -107 244
-237 378 -307 320 -754 553 -1839 962 -748 282 -945 374 -1246 583 -585 407
-939 967 -969 1532 l-6 130 -7 -130z"/>
<path d="M2422 3578 c-127 -208 -78 -630 119 -1029 148 -298 375 -578 649
-798 284 -228 638 -398 1058 -506 111 -29 334 -75 364 -75 4 0 8 -92 8 -205
l0 -205 530 0 530 0 0 205 0 205 28 0 c127 0 522 87 708 155 138 50 362 162
464 230 530 357 890 1000 915 1635 l5 125 -15 -98 c-68 -475 -271 -868 -600
-1167 -368 -333 -883 -531 -1575 -606 -195 -22 -694 -25 -855 -6 -613 71
-1081 260 -1482 599 -279 235 -522 570 -673 926 -101 239 -184 554 -161 617
13 39 7 38 -17 -2z"/>
</g>
</svg>
